<svg xmlns="http://www.w3.org/2000/svg" viewBox="0 0 1620 1596" width="1620" height="1596" font-family="Georgia, 'Times New Roman', serif" fill="#2b2620">
<defs><clipPath id="win"><rect x="120.0" y="150.0" width="691.2" height="1296.0"/></clipPath><pattern id="uud" width="8" height="8" patternUnits="userSpaceOnUse" patternTransform="rotate(45)"><rect width="8" height="8" fill="#efe6d2"/><line x1="0" y1="0" x2="0" y2="8" stroke="#cbb98f" stroke-width="2"/></pattern></defs>
<rect width="1620" height="1596" fill="#f6f0e1"/>
<text x="60" y="60" font-size="34" font-weight="bold">Under Shattuck Avenue, in plan</text>
<text x="60" y="94" font-size="18" font-style="italic">Center Street to Allston Way · every utility line the public records show · north is up</text>
<rect x="120.0" y="150.0" width="691.2" height="1296.0" fill="#f1ead8" stroke="#2b2620" stroke-width="1.5"/>
<g clip-path="url(#win)">
<path d="M194.5 29.4 L5.6 71.6 L-58.2 -210.6 L150.0 -258.4 L194.5 29.4 Z" fill="url(#uud)" stroke="#8a7a5c" stroke-width="0.8"/>
<path d="M204.2 91.0 L-35.4 144.8 L-48.3 83.5 L5.6 71.6 L194.5 29.4 L204.2 91.0 Z" fill="url(#uud)" stroke="#8a7a5c" stroke-width="0.8"/>
<path d="M217.4 167.7 L-20.3 217.5 L-35.4 144.8 L204.2 91.0 L217.4 167.7 Z" fill="url(#uud)" stroke="#8a7a5c" stroke-width="0.8"/>
<path d="M-35.4 144.8 L-20.3 217.5 L217.4 167.7 L241.1 302.1 L-126.1 382.8 L-180.6 149.7 L-188.6 115.4 L-153.0 107.4 L-48.3 83.5 L-35.4 144.8 Z" fill="url(#uud)" stroke="#8a7a5c" stroke-width="0.8"/>
<path d="M-366.5 157.1 L-395.2 163.8 L-468.2 180.9 L-468.9 181.1 L-469.0 180.4 L-535.9 -98.8 L-431.3 -123.3 L-366.5 157.1 Z" fill="url(#uud)" stroke="#8a7a5c" stroke-width="0.8"/>
<path d="M-366.5 157.1 L-366.5 157.1 L-431.3 -123.3 L-323.5 -149.1 L-260.8 132.3 L-261.0 132.4 L-338.8 150.6 L-366.5 157.1 Z" fill="url(#uud)" stroke="#8a7a5c" stroke-width="0.8"/>
<path d="M-188.6 115.4 L-260.4 132.2 L-260.8 132.3 L-323.5 -149.1 L-215.8 -175.0 L-153.0 107.4 L-188.6 115.4 Z" fill="url(#uud)" stroke="#8a7a5c" stroke-width="0.8"/>
<path d="M5.6 71.6 L-48.3 83.5 L-153.0 107.4 L-215.8 -175.0 L-58.2 -210.6 L5.6 71.6 Z" fill="url(#uud)" stroke="#8a7a5c" stroke-width="0.8"/>
<path d="M-126.1 382.8 L-126.6 382.9 L-527.3 477.1 L-589.6 210.6 L-589.8 209.9 L-589.9 209.4 L-551.1 200.4 L-547.9 199.6 L-468.9 181.1 L-468.2 180.9 L-395.2 163.8 L-366.5 157.1 L-366.5 157.1 L-338.8 150.6 L-261.0 132.4 L-260.8 132.3 L-260.4 132.2 L-188.6 115.4 L-180.6 149.7 L-126.1 382.8 Z" fill="url(#uud)" stroke="#8a7a5c" stroke-width="0.8"/>
<path d="M310.4 644.9 L95.9 683.3 L87.2 684.6 L-74.3 712.8 L-115.1 545.1 L280.8 454.1 L310.4 644.9 Z" fill="url(#uud)" stroke="#8a7a5c" stroke-width="0.8"/>
<path d="M-106.0 1162.9 L-150.8 961.9 L98.3 916.1 L346.3 870.5 L372.9 1052.7 L-106.0 1162.9 Z" fill="url(#uud)" stroke="#8a7a5c" stroke-width="0.8"/>
<path d="M-74.3 712.8 L-69.1 735.0 L-183.6 759.2 L-223.2 567.7 L-115.1 545.1 L-74.3 712.8 Z" fill="url(#uud)" stroke="#8a7a5c" stroke-width="0.8"/>
<path d="M-298.2 1204.9 L-469.9 1241.8 L-532.0 967.1 L-529.5 966.5 L-358.6 924.5 L-298.2 1204.9 Z" fill="url(#uud)" stroke="#8a7a5c" stroke-width="0.8"/>
<path d="M-74.3 712.8 L87.2 684.6 L95.9 683.3 L105.0 738.2 L74.7 744.2 L98.3 916.1 L-150.8 961.9 L-106.0 1162.9 L-298.2 1204.9 L-358.6 924.5 L-360.5 915.3 L-307.6 903.6 L-376.3 603.5 L-223.2 567.7 L-183.6 759.2 L-69.1 735.0 L-74.3 712.8 Z" fill="url(#uud)" stroke="#8a7a5c" stroke-width="0.8"/>
<path d="M346.3 870.5 L98.3 916.1 L74.7 744.2 L105.0 738.2 L95.9 683.3 L310.4 644.9 L346.3 870.5 Z" fill="url(#uud)" stroke="#8a7a5c" stroke-width="0.8"/>
<path d="M-258.0 1697.4 L-469.5 1745.5 L-495.7 1633.4 L-281.0 1583.4 L-258.0 1697.4 Z" fill="#e6dcc4" stroke="#8a7a5c" stroke-width="0.8"/>
<path d="M-281.0 1583.4 L-495.7 1633.4 L-544.8 1394.6 L-335.5 1346.2 L-281.0 1583.4 Z" fill="url(#uud)" stroke="#8a7a5c" stroke-width="0.8"/>
<path d="M-68.8 1889.4 L-202.6 1317.3 L388.1 1179.3 L480.8 1758.9 L-68.8 1889.4 Z" fill="url(#uud)" stroke="#8a7a5c" stroke-width="0.8"/>
<path d="M1066.6 1965.5 L855.3 2011.9 L823.7 1793.2 L1019.6 1750.2 L1066.6 1965.5 Z" fill="url(#uud)" stroke="#8a7a5c" stroke-width="0.8"/>
<path d="M1190.1 2017.0 L1083.0 2040.5 L1066.6 1965.5 L1019.6 1750.2 L1126.7 1726.7 L1190.1 2017.0 Z" fill="url(#uud)" stroke="#8a7a5c" stroke-width="0.8"/>
<path d="M1297.1 1993.5 L1190.1 2017.0 L1126.7 1726.7 L1233.7 1703.2 L1297.1 1993.5 Z" fill="url(#uud)" stroke="#8a7a5c" stroke-width="0.8"/>
<path d="M930.9 1337.1 L770.2 1374.1 L726.0 1077.5 L994.5 1014.6 L1059.7 1304.5 L951.8 1331.8 L930.9 1337.1 Z" fill="url(#uud)" stroke="#8a7a5c" stroke-width="0.8"/>
<path d="M1143.0 1285.4 L1059.7 1304.5 L994.5 1014.6 L1230.8 961.1 L1271.5 1153.7 L1292.5 1250.5 L1249.7 1259.8 L1143.0 1285.4 Z" fill="url(#uud)" stroke="#8a7a5c" stroke-width="0.8"/>
<path d="M1271.5 1153.7 L1230.8 961.1 L1315.3 941.4 L1357.2 1135.0 L1271.5 1153.7 Z" fill="url(#uud)" stroke="#8a7a5c" stroke-width="0.8"/>
<path d="M1312.5 1550.2 L1206.6 1575.7 L1143.4 1287.3 L1143.0 1285.4 L1249.7 1259.8 L1312.5 1550.2 Z" fill="url(#uud)" stroke="#8a7a5c" stroke-width="0.8"/>
<path d="M1206.6 1575.7 L994.1 1625.0 L961.7 1478.1 L949.2 1421.7 L930.9 1337.1 L951.8 1331.8 L1059.7 1304.5 L1143.0 1285.4 L1143.4 1287.3 L1206.6 1575.7 Z" fill="url(#uud)" stroke="#8a7a5c" stroke-width="0.8"/>
<path d="M994.1 1625.0 L810.6 1665.6 L792.4 1518.0 L961.7 1478.1 L994.1 1625.0 Z" fill="url(#uud)" stroke="#8a7a5c" stroke-width="0.8"/>
<path d="M961.7 1478.1 L792.4 1518.0 L782.8 1456.5 L949.2 1421.7 L961.7 1478.1 Z" fill="url(#uud)" stroke="#8a7a5c" stroke-width="0.8"/>
<path d="M949.2 1421.7 L782.8 1456.5 L770.2 1374.1 L930.9 1337.1 L949.2 1421.7 Z" fill="url(#uud)" stroke="#8a7a5c" stroke-width="0.8"/>
<path d="M1417.7 793.7 L1083.7 875.5 L1043.4 597.8 L1375.2 516.8 L1417.7 793.7 Z" fill="url(#uud)" stroke="#8a7a5c" stroke-width="0.8"/>
<path d="M1043.4 597.8 L1083.7 875.5 L975.6 897.5 L949.6 709.7 L933.4 598.4 L965.7 590.1 L972.1 613.9 L1043.4 597.8 Z" fill="url(#uud)" stroke="#8a7a5c" stroke-width="0.8"/>
<path d="M975.6 897.5 L707.9 957.0 L699.5 910.2 L700.5 768.2 L949.6 709.7 L975.6 897.5 Z" fill="url(#uud)" stroke="#8a7a5c" stroke-width="0.8"/>
<path d="M949.6 709.7 L700.5 768.2 L701.8 655.4 L933.4 598.4 L949.6 709.7 Z" fill="url(#uud)" stroke="#8a7a5c" stroke-width="0.8"/>
<path d="M965.7 590.1 L933.4 598.4 L701.8 655.4 L703.9 551.9 L954.1 493.4 L965.7 590.1 Z" fill="url(#uud)" stroke="#8a7a5c" stroke-width="0.8"/>
<path d="M954.1 493.4 L703.9 551.9 L704.6 367.4 L941.9 313.3 L954.1 403.3 L943.1 404.3 L954.1 493.4 Z" fill="url(#uud)" stroke="#8a7a5c" stroke-width="0.8"/>
<path d="M1055.3 570.3 L965.7 590.1 L954.1 493.4 L943.1 404.3 L954.1 403.3 L941.9 313.3 L1015.2 295.4 L1055.3 570.3 Z" fill="url(#uud)" stroke="#8a7a5c" stroke-width="0.8"/>
<path d="M1173.9 541.8 L1055.3 570.3 L1015.2 295.4 L1130.3 265.0 L1173.9 541.8 Z" fill="url(#uud)" stroke="#8a7a5c" stroke-width="0.8"/>
<path d="M985.2 -256.6 L703.1 -191.0 L703.0 -191.0 L702.6 -190.9 L703.8 -281.3 L971.6 -343.5 L985.2 -256.6 Z" fill="url(#uud)" stroke="#8a7a5c" stroke-width="0.8"/>
<path d="M956.3 -441.6 L971.6 -343.5 L703.8 -281.3 L704.7 -383.1 L956.3 -441.6 Z" fill="url(#uud)" stroke="#8a7a5c" stroke-width="0.8"/>
<path d="M1097.1 -248.5 L990.3 -223.7 L990.3 -223.9 L985.2 -256.5 L985.2 -256.6 L971.6 -343.5 L956.3 -441.6 L1063.0 -466.4 L1097.1 -248.5 Z" fill="url(#uud)" stroke="#8a7a5c" stroke-width="0.8"/>
<path d="M537.6 -270.0 L399.6 -237.1 L390.3 -306.5 L541.2 -343.2 L537.6 -270.0 Z" fill="url(#uud)" stroke="#8a7a5c" stroke-width="0.8"/>
<path d="M535.1 -170.3 L415.4 -142.9 L399.6 -237.1 L537.6 -270.0 L535.1 -170.3 Z" fill="url(#uud)" stroke="#8a7a5c" stroke-width="0.8"/>
<path d="M542.6 -70.5 L428.1 -46.3 L415.4 -142.9 L535.1 -170.3 L542.6 -70.5 Z" fill="url(#uud)" stroke="#8a7a5c" stroke-width="0.8"/>
<path d="M539.1 42.0 L449.6 62.9 L428.1 -46.3 L542.6 -70.5 L539.1 42.0 Z" fill="url(#uud)" stroke="#8a7a5c" stroke-width="0.8"/>
<path d="M449.6 62.9 L539.1 42.0 L542.5 222.8 L478.7 235.5 L449.6 62.9 Z" fill="url(#uud)" stroke="#8a7a5c" stroke-width="0.8"/>
<path d="M990.3 -223.9 L990.3 -223.7 L1097.1 -248.5 L1105.6 -194.1 L1212.3 -219.0 L1254.9 52.9 L699.4 182.0 L702.6 -190.9 L703.0 -191.0 L703.1 -191.0 L985.2 -256.6 L985.2 -256.5 L990.3 -223.9 Z" fill="url(#uud)" stroke="#8a7a5c" stroke-width="0.8"/>
<path d="M-68.8 1889.4 L-202.6 1317.3 L388.1 1179.3 L480.8 1758.9 L-68.8 1889.4 Z" fill="url(#uud)" stroke="#8a7a5c" stroke-width="0.8"/>
<path d="M-68.8 1889.4 L-202.6 1317.3 L388.1 1179.3 L480.8 1758.9 L-68.8 1889.4 Z" fill="url(#uud)" stroke="#8a7a5c" stroke-width="0.8"/>
<path d="M-68.8 1889.4 L-202.6 1317.3 L388.1 1179.3 L480.8 1758.9 L-68.8 1889.4 Z" fill="url(#uud)" stroke="#8a7a5c" stroke-width="0.8"/>
<path d="M990.3 -223.9 L990.3 -223.7 L1097.1 -248.5 L1105.6 -194.1 L1212.3 -219.0 L1254.9 52.9 L699.4 182.0 L702.6 -190.9 L703.0 -191.0 L703.1 -191.0 L985.2 -256.6 L985.2 -256.5 L990.3 -223.9 Z" fill="url(#uud)" stroke="#8a7a5c" stroke-width="0.8"/>
<path d="M990.3 -223.9 L990.3 -223.7 L1097.1 -248.5 L1105.6 -194.1 L1212.3 -219.0 L1254.9 52.9 L699.4 182.0 L702.6 -190.9 L703.0 -191.0 L703.1 -191.0 L985.2 -256.6 L985.2 -256.5 L990.3 -223.9 Z" fill="url(#uud)" stroke="#8a7a5c" stroke-width="0.8"/>
<rect x="393.6" y="114.0" width="144.0" height="1029.6000000000001" fill="none" stroke="#555" stroke-width="2" stroke-dasharray="12 6"/>
<path d="M587.7 945.4 L605.7 1055.2" fill="none" stroke="#5b8c2a" stroke-width="3" stroke-linecap="round" stroke-dasharray="10 4 2 4"/>
<path d="M573.8 935.7 L587.7 945.4" fill="none" stroke="#5b8c2a" stroke-width="3" stroke-linecap="round" stroke-dasharray="10 4 2 4"/>
<path d="M653.7 935.4 L587.7 945.4" fill="none" stroke="#5b8c2a" stroke-width="3" stroke-linecap="round" stroke-dasharray="10 4 2 4"/>
<path d="M474.5 987.4 L480.0 1097.2" fill="none" stroke="#5b8c2a" stroke-width="3" stroke-linecap="round" stroke-dasharray="10 4 2 4"/>
<path d="M809.3 125.8 L665.4 161.0" fill="none" stroke="#5b8c2a" stroke-width="3" stroke-linecap="round" stroke-dasharray="10 4 2 4"/>
<path d="M738.9 213.7 L683.3 228.3 L681.4 228.8 L683.3 227.9" fill="none" stroke="#5b8c2a" stroke-width="3" stroke-linecap="round" stroke-dasharray="10 4 2 4"/>
<path d="M665.4 161.0 L683.3 227.9" fill="none" stroke="#5b8c2a" stroke-width="3" stroke-linecap="round" stroke-dasharray="10 4 2 4"/>
<path d="M683.3 227.9 L683.3 228.3 L685.8 278.2" fill="none" stroke="#5b8c2a" stroke-width="3" stroke-linecap="round" stroke-dasharray="10 4 2 4"/>
<path d="M685.8 278.2 L597.7 295.2" fill="none" stroke="#5b8c2a" stroke-width="3" stroke-linecap="round" stroke-dasharray="10 4 2 4"/>
<path d="M854.6 790.2 L951.2 825.2" fill="none" stroke="#5b8c2a" stroke-width="3" stroke-linecap="round" stroke-dasharray="10 4 2 4"/>
<path d="M951.2 825.2 L974.6 958.2" fill="none" stroke="#5b8c2a" stroke-width="3" stroke-linecap="round" stroke-dasharray="10 4 2 4"/>
<path d="M720.7 991.5 L722.3 1015.2" fill="none" stroke="#5b8c2a" stroke-width="3" stroke-linecap="round" stroke-dasharray="10 4 2 4"/>
<path d="M727.8 1054.0 L722.3 1015.2" fill="none" stroke="#5b8c2a" stroke-width="3" stroke-linecap="round" stroke-dasharray="10 4 2 4"/>
<path d="M766.7 1575.3 L781.9 1705.0" fill="none" stroke="#5b8c2a" stroke-width="3" stroke-linecap="round" stroke-dasharray="10 4 2 4"/>
<path d="M572.3 1622.7 L509.5 1787.8" fill="none" stroke="#5b8c2a" stroke-width="3" stroke-linecap="round" stroke-dasharray="10 4 2 4"/>
<path d="M575.2 203.7 L597.7 295.2" fill="none" stroke="#5b8c2a" stroke-width="3" stroke-linecap="round" stroke-dasharray="10 4 2 4"/>
<path d="M788.7 322.2 L685.8 278.2" fill="none" stroke="#5b8c2a" stroke-width="3" stroke-linecap="round" stroke-dasharray="10 4 2 4"/>
<path d="M291.3 140.9 L410.6 162.2" fill="none" stroke="#5b8c2a" stroke-width="3" stroke-linecap="round" stroke-dasharray="10 4 2 4"/>
<path d="M344.4 -143.0 L410.6 162.2" fill="none" stroke="#5b8c2a" stroke-width="3" stroke-linecap="round" stroke-dasharray="10 4 2 4"/>
<path d="M410.6 162.2 L450.8 324.8" fill="none" stroke="#5b8c2a" stroke-width="3" stroke-linecap="round" stroke-dasharray="10 4 2 4"/>
<path d="M450.8 324.8 L597.7 295.2" fill="none" stroke="#5b8c2a" stroke-width="3" stroke-linecap="round" stroke-dasharray="10 4 2 4"/>
<path d="M597.7 295.2 L589.3 654.2" fill="none" stroke="#5b8c2a" stroke-width="3" stroke-linecap="round" stroke-dasharray="10 4 2 4"/>
<path d="M672.0 658.5 L589.3 654.2" fill="none" stroke="#5b8c2a" stroke-width="3" stroke-linecap="round" stroke-dasharray="10 4 2 4"/>
<path d="M589.3 654.2 L587.7 945.4" fill="none" stroke="#5b8c2a" stroke-width="3" stroke-linecap="round" stroke-dasharray="10 4 2 4"/>
<path d="M436.7 92.9 L463.2 249.1" fill="none" stroke="#2e7d32" stroke-width="3.2" stroke-linecap="round"/>
<path d="M463.2 249.1 L501.2 296.7" fill="none" stroke="#2e7d32" stroke-width="3.2" stroke-linecap="round"/>
<path d="M501.2 296.7 L566.1 279.0" fill="none" stroke="#2e7d32" stroke-width="3.2" stroke-linecap="round"/>
<path d="M643.9 331.8 L646.4 289.0" fill="none" stroke="#2e7d32" stroke-width="3.2" stroke-linecap="round"/>
<path d="M646.4 289.0 L605.5 283.9 L566.1 279.0" fill="none" stroke="#2e7d32" stroke-width="3.2" stroke-linecap="round"/>
<path d="M645.2 771.4 L645.2 763.9 L645.2 748.9 L644.9 655.0 L644.6 571.7 L644.4 490.8 L644.2 431.4 L644.1 423.2 L643.9 331.8" fill="none" stroke="#2e7d32" stroke-width="3.2" stroke-linecap="round"/>
<path d="M660.2 1131.5 L624.1 1146.8" fill="none" stroke="#2e7d32" stroke-width="3.2" stroke-linecap="round"/>
<path d="M730.5 1044.8 L676.8 1111.1 L660.2 1131.5" fill="none" stroke="#2e7d32" stroke-width="3.2" stroke-linecap="round"/>
<path d="M600.2 810.8 L624.1 1146.8" fill="none" stroke="#2e7d32" stroke-width="3.2" stroke-linecap="round"/>
<path d="M624.1 1146.8 L718.7 1767.0" fill="none" stroke="#2e7d32" stroke-width="3.2" stroke-linecap="round"/>
<path d="M461.5 1237.5 L546.3 1805.6" fill="none" stroke="#2e7d32" stroke-width="3.2" stroke-linecap="round"/>
<path d="M249.6 130.2 L243.0 88.3 L187.0 -266.6" fill="none" stroke="#2e7d32" stroke-width="3.2" stroke-linecap="round"/>
<path d="M-7.3 399.8 L-143.4 481.2" fill="none" stroke="#2e7d32" stroke-width="3.2" stroke-linecap="round"/>
<path d="M-45.3 459.8 L-143.4 481.2" fill="none" stroke="#2e7d32" stroke-width="3.2" stroke-linecap="round"/>
<path d="M669.1 1057.2 L676.8 1111.1 L678.8 1125.5 L686.1 1177.3 L693.7 1230.9 L701.2 1283.6 L708.9 1338.1 L726.1 1460.1 L728.5 1476.5 L736.6 1534.3" fill="none" stroke="#2e7d32" stroke-width="3.2" stroke-linecap="round"/>
<path d="M661.7 -376.5 L661.7 -363.4 L661.9 -319.9 L662.1 -266.8 L662.3 -226.0 L662.4 -183.1 L662.6 -133.6 L662.8 -81.7 L662.9 -52.4 L663.0 -41.1 L663.1 -6.1" fill="none" stroke="#2e7d32" stroke-width="3.2" stroke-linecap="round"/>
<path d="M604.8 -363.2 L605.6 280.9" fill="none" stroke="#2e7d32" stroke-width="3.2" stroke-linecap="round"/>
<path d="M663.1 -6.1 L662.5 3.7 L660.2 46.0 L659.8 53.3 L657.2 100.7 L649.6 240.5" fill="none" stroke="#2e7d32" stroke-width="3.2" stroke-linecap="round"/>
<path d="M649.6 240.5 L647.6 271.1 L646.4 289.0" fill="none" stroke="#2e7d32" stroke-width="3.2" stroke-linecap="round"/>
<path d="M1259.9 98.1 L1230.1 105.0 L1216.4 108.3 L1183.8 115.9 L1159.7 121.5 L1090.3 137.7 L1052.4 146.5 L1018.9 154.3 L1010.1 156.4 L935.7 173.8 L898.2 182.5 L888.5 184.8 L866.8 189.8 L858.8 191.7 L841.4 195.7 L832.0 197.9 L797.9 205.9 L787.7 208.3 L746.1 218.0 L649.6 240.5" fill="none" stroke="#2e7d32" stroke-width="3.2" stroke-linecap="round"/>
<path d="M1163.6 150.6 L1057.3 175.4 L1018.8 184.4 L938.5 203.2 L802.5 234.9 L749.1 247.4 L647.6 271.1 L605.6 280.9" fill="none" stroke="#2e7d32" stroke-width="3.2" stroke-linecap="round"/>
<path d="M605.6 280.9 L605.5 283.9 L600.2 810.8" fill="none" stroke="#2e7d32" stroke-width="3.2" stroke-linecap="round"/>
<path d="M332.4 649.6 L336.1 674.6 L342.9 720.4 L347.4 751.0 L348.8 759.9 L363.3 857.5 L367.6 887.1 L382.4 986.3 L397.5 1088.2" fill="none" stroke="#2e7d32" stroke-width="3.2" stroke-linecap="round"/>
<path d="M736.6 1534.3 L736.7 1534.6 L767.0 1731.5" fill="none" stroke="#2e7d32" stroke-width="3.2" stroke-linecap="round"/>
<path d="M397.5 1088.2 L192.4 1167.8" fill="none" stroke="#2e7d32" stroke-width="3.2" stroke-linecap="round"/>
<path d="M566.1 279.0 L574.2 -184.9 L577.3 -363.2" fill="none" stroke="#2e7d32" stroke-width="3.2" stroke-linecap="round"/>
<path d="M725.4 1072.9 L730.9 1112.9 L733.8 1134.4 L737.9 1164.4 L745.2 1218.0 L746.9 1229.9 L752.1 1267.8 L760.1 1326.5 L763.5 1351.1 L771.8 1411.7 L775.3 1438.4 L776.5 1448.1 L778.1 1460.0 L782.5 1493.9 L784.4 1508.2 L781.3 1523.0 L760.2 1530.7 L736.6 1534.3" fill="none" stroke="#2e7d32" stroke-width="3.2" stroke-linecap="round"/>
<path d="M-73.9 1162.8 L-189.7 1189.2 L-418.7 1241.6" fill="none" stroke="#2e7d32" stroke-width="3.2" stroke-linecap="round"/>
<path d="M230.9 391.7 L-42.5 459.1 L-45.3 459.8" fill="none" stroke="#2e7d32" stroke-width="3.2" stroke-linecap="round"/>
<path d="M1574.0 845.9 L1573.2 846.1 L1360.5 896.7 L1152.7 946.2 L1083.7 962.6 L1011.7 979.8 L966.9 990.4" fill="none" stroke="#2e7d32" stroke-width="3.2" stroke-linecap="round"/>
<path d="M1044.0 933.0 L987.8 946.0" fill="none" stroke="#2e7d32" stroke-width="3.2" stroke-linecap="round"/>
<path d="M987.8 946.0 L966.9 990.4" fill="none" stroke="#2e7d32" stroke-width="3.2" stroke-linecap="round"/>
<path d="M1140.0 875.8 L1128.8 878.4 L1096.9 885.7 L1027.0 901.7 L992.7 909.6" fill="none" stroke="#2e7d32" stroke-width="3.2" stroke-linecap="round"/>
<path d="M992.7 909.6 L987.8 946.0" fill="none" stroke="#2e7d32" stroke-width="3.2" stroke-linecap="round"/>
<path d="M1194.0 964.9 L1192.9 965.1 L1166.4 971.3 L1131.0 979.4 L1094.1 987.9 L1044.7 999.3 L1019.4 1005.2 L981.9 1013.8 L957.9 1019.3 L897.9 1033.2 L725.4 1072.9" fill="none" stroke="#2e7d32" stroke-width="3.2" stroke-linecap="round"/>
<path d="M966.9 990.4 L946.2 995.2 L902.3 1005.3 L730.5 1044.8" fill="none" stroke="#2e7d32" stroke-width="3.2" stroke-linecap="round"/>
<path d="M192.4 1167.8 L-214.4 1257.4" fill="none" stroke="#2e7d32" stroke-width="3.2" stroke-linecap="round"/>
<path d="M176.7 422.4 L-26.2 468.3 L-130.7 491.9 L-492.8 573.7" fill="none" stroke="#2e7d32" stroke-width="3.2" stroke-linecap="round"/>
<path d="M231.2 408.5 L176.7 422.4" fill="none" stroke="#2e7d32" stroke-width="3.2" stroke-linecap="round"/>
<path d="M1071.1 188.2 L1059.9 190.9 L1050.1 193.2 L1018.8 200.6 L960.0 214.6 L940.1 219.3 L907.5 227.0 L805.0 251.3 L646.4 289.0" fill="none" stroke="#2e7d32" stroke-width="3.2" stroke-linecap="round"/>
<path d="M1128.1 219.9 L643.9 331.8" fill="none" stroke="#2e7d32" stroke-width="3.2" stroke-linecap="round"/>
<path d="M445.7 350.5 L427.0 319.1 L404.6 281.5" fill="none" stroke="#1f5fbf" stroke-width="2.6" stroke-linecap="round"/>
<path d="M248.3 -170.4 L274.3 -4.8 L293.0 7.4" fill="none" stroke="#1f5fbf" stroke-width="2.6" stroke-linecap="round"/>
<path d="M768.6 984.3 L731.5 988.1" fill="none" stroke="#1f5fbf" stroke-width="2.6" stroke-linecap="round"/>
<path d="M671.9 -89.3 L671.7 -75.1 L670.9 -19.6" fill="none" stroke="#1f5fbf" stroke-width="2.6" stroke-linecap="round"/>
<path d="M221.0 411.2 L224.1 421.5 L212.9 424.0" fill="none" stroke="#1f5fbf" stroke-width="2.6" stroke-linecap="round"/>
<path d="M593.1 1134.7 L575.3 1014.2 L563.3 1002.0" fill="none" stroke="#1f5fbf" stroke-width="2.6" stroke-linecap="round"/>
<path d="M264.2 402.0 L269.6 401.0" fill="none" stroke="#1f5fbf" stroke-width="2.6" stroke-linecap="round"/>
<path d="M267.8 415.6 L269.1 420.3 L295.6 446.8 L312.9 558.5 L308.8 575.4 L327.4 695.0 L330.1 711.9 L334.5 740.8 L372.1 982.2 L378.0 1020.2" fill="none" stroke="#1f5fbf" stroke-width="2.6" stroke-linecap="round"/>
<path d="M437.4 356.5 L445.7 350.5" fill="none" stroke="#1f5fbf" stroke-width="2.6" stroke-linecap="round"/>
<path d="M291.1 330.7 L257.5 336.3" fill="none" stroke="#1f5fbf" stroke-width="2.6" stroke-linecap="round"/>
<path d="M378.0 1020.2 L380.1 1033.8 L446.7 1040.2" fill="none" stroke="#1f5fbf" stroke-width="2.6" stroke-linecap="round"/>
<path d="M669.5 273.1 L673.4 272.3" fill="none" stroke="#1f5fbf" stroke-width="2.6" stroke-linecap="round"/>
<path d="M605.1 322.5 L603.1 322.4 L603.0 320.2 L601.3 320.4" fill="none" stroke="#1f5fbf" stroke-width="2.6" stroke-linecap="round"/>
<path d="M763.3 296.0 L769.9 294.5 L949.1 253.9 L985.8 245.5 L1049.4 231.1 L1085.2 223.0 L1233.2 189.4 L1279.9 178.8" fill="none" stroke="#1f5fbf" stroke-width="2.6" stroke-linecap="round"/>
<path d="M263.6 369.4 L257.5 336.3" fill="none" stroke="#1f5fbf" stroke-width="2.6" stroke-linecap="round"/>
<path d="M619.6 960.0 L620.0 971.5" fill="none" stroke="#1f5fbf" stroke-width="2.6" stroke-linecap="round"/>
<path d="M563.3 1002.0 L524.6 961.7 L520.2 931.4" fill="none" stroke="#1f5fbf" stroke-width="2.6" stroke-linecap="round"/>
<path d="M-251.9 1257.2 L-205.2 1246.6 L-144.6 1232.7 L-86.7 1219.4 L-6.6 1201.1 L285.4 1134.2" fill="none" stroke="#1f5fbf" stroke-width="2.6" stroke-linecap="round"/>
<path d="M611.7 280.8 L610.0 250.3 L610.7 153.7 L610.7 148.5" fill="none" stroke="#1f5fbf" stroke-width="2.6" stroke-linecap="round"/>
<path d="M494.7 587.7 L496.9 458.4 L497.3 438.8 L485.7 418.8" fill="none" stroke="#1f5fbf" stroke-width="2.6" stroke-linecap="round"/>
<path d="M610.7 148.5 L610.9 109.7" fill="none" stroke="#1f5fbf" stroke-width="2.6" stroke-linecap="round"/>
<path d="M651.1 1128.1 L686.3 1178.7 L726.0 1435.7 L729.7 1460.0 L730.9 1467.6 L723.6 1484.8 L748.0 1610.7" fill="none" stroke="#1f5fbf" stroke-width="2.6" stroke-linecap="round"/>
<path d="M606.3 322.6 L605.1 322.5" fill="none" stroke="#1f5fbf" stroke-width="2.6" stroke-linecap="round"/>
<path d="M285.4 1134.2 L296.1 1131.1 L333.1 1152.2 L348.2 1149.9 L366.2 1147.1" fill="none" stroke="#1f5fbf" stroke-width="2.6" stroke-linecap="round"/>
<path d="M669.0 107.5 L667.8 170.6 L669.3 186.9 L670.8 204.1 L665.2 268.8 L664.8 273.3" fill="none" stroke="#1f5fbf" stroke-width="2.6" stroke-linecap="round"/>
<path d="M485.7 418.8 L497.2 411.8" fill="none" stroke="#1f5fbf" stroke-width="2.6" stroke-linecap="round"/>
<path d="M607.5 378.4 L608.4 356.8" fill="none" stroke="#1f5fbf" stroke-width="2.6" stroke-linecap="round"/>
<path d="M264.2 402.0 L267.8 415.6" fill="none" stroke="#1f5fbf" stroke-width="2.6" stroke-linecap="round"/>
<path d="M748.0 1610.7 L762.4 1684.6" fill="none" stroke="#1f5fbf" stroke-width="2.6" stroke-linecap="round"/>
<path d="M437.9 1142.6 L473.9 1164.9 L478.4 1234.1 L480.9 1272.6 L480.9 1284.7" fill="none" stroke="#1f5fbf" stroke-width="2.6" stroke-linecap="round"/>
<path d="M1408.6 841.8 L1383.4 847.6 L1370.6 850.6 L1266.0 874.7 L1111.9 910.3 L1109.9 910.8 L1023.7 929.3 L1008.0 932.7 L997.1 935.1 L988.5 936.9 L944.0 946.5 L932.0 949.1 L880.0 960.3 L768.6 984.3" fill="none" stroke="#1f5fbf" stroke-width="2.6" stroke-linecap="round"/>
<path d="M257.5 336.3 L254.6 316.1" fill="none" stroke="#1f5fbf" stroke-width="2.6" stroke-linecap="round"/>
<path d="M709.7 998.8 L703.0 1002.1 L685.4 989.8 L623.5 999.0" fill="none" stroke="#1f5fbf" stroke-width="2.6" stroke-linecap="round"/>
<path d="M241.5 406.8 L255.6 403.8 L264.2 402.0" fill="none" stroke="#1f5fbf" stroke-width="2.6" stroke-linecap="round"/>
<path d="M269.6 401.0 L263.6 369.4" fill="none" stroke="#1f5fbf" stroke-width="2.6" stroke-linecap="round"/>
<path d="M404.6 281.5 L350.6 190.7 L334.8 106.5 L329.2 76.5 L328.2 71.2 L324.4 47.2 L321.0 25.9 L293.0 7.4" fill="none" stroke="#1f5fbf" stroke-width="2.6" stroke-linecap="round"/>
<path d="M480.9 1284.7 L480.4 1356.7 L476.4 1353.7 L477.9 1375.5 L477.9 1375.6 L480.0 1406.2 L479.2 1521.3 L506.3 1693.0 L517.1 1761.4" fill="none" stroke="#1f5fbf" stroke-width="2.6" stroke-linecap="round"/>
<path d="M563.3 1002.0 L554.7 1011.5" fill="none" stroke="#1f5fbf" stroke-width="2.6" stroke-linecap="round"/>
<path d="M499.1 1281.9 L612.3 1264.6 L593.1 1134.7" fill="none" stroke="#1f5fbf" stroke-width="2.6" stroke-linecap="round"/>
<path d="M269.6 401.0 L419.8 369.3 L437.4 356.5" fill="none" stroke="#1f5fbf" stroke-width="2.6" stroke-linecap="round"/>
<path d="M520.2 931.4 L495.7 765.4 L492.8 693.8 L494.7 587.7" fill="none" stroke="#1f5fbf" stroke-width="2.6" stroke-linecap="round"/>
<path d="M480.9 1284.7 L499.1 1281.9" fill="none" stroke="#1f5fbf" stroke-width="2.6" stroke-linecap="round"/>
<path d="M640.0 1102.5 L642.6 1118.9 L651.1 1128.1" fill="none" stroke="#1f5fbf" stroke-width="2.6" stroke-linecap="round"/>
<path d="M554.7 1011.5 L544.2 1023.0 L446.7 1040.2" fill="none" stroke="#1f5fbf" stroke-width="2.6" stroke-linecap="round"/>
<path d="M382.1 1144.7 L437.9 1142.6" fill="none" stroke="#1f5fbf" stroke-width="2.6" stroke-linecap="round"/>
<path d="M485.7 418.8 L483.8 415.7 L469.8 391.7" fill="none" stroke="#1f5fbf" stroke-width="2.6" stroke-linecap="round"/>
<path d="M469.8 391.7 L445.7 350.5" fill="none" stroke="#1f5fbf" stroke-width="2.6" stroke-linecap="round"/>
<path d="M366.2 1147.1 L382.0 1144.7 L382.1 1144.7" fill="none" stroke="#1f5fbf" stroke-width="2.6" stroke-linecap="round"/>
<path d="M623.5 999.0 L640.0 1102.5" fill="none" stroke="#1f5fbf" stroke-width="2.6" stroke-linecap="round"/>
<path d="M221.0 411.2 L241.5 406.8" fill="none" stroke="#1f5fbf" stroke-width="2.6" stroke-linecap="round"/>
<path d="M212.9 424.0 L22.6 468.1 L-78.8 491.6 L-115.3 500.0 L-144.2 506.7" fill="none" stroke="#1f5fbf" stroke-width="2.6" stroke-linecap="round"/>
<path d="M653.8 622.0 L654.7 631.7 L655.9 645.5 L642.5 643.4 L620.6 682.8 L620.4 696.4 L619.7 744.4 L616.9 952.5 L616.8 958.7 L617.2 961.1" fill="none" stroke="#1f5fbf" stroke-width="2.6" stroke-linecap="round"/>
<path d="M610.9 109.7 L610.9 106.2 L610.7 91.2 L644.7 57.8" fill="none" stroke="#1f5fbf" stroke-width="2.6" stroke-linecap="round"/>
<path d="M670.9 324.3 L660.3 326.5" fill="none" stroke="#1f5fbf" stroke-width="2.6" stroke-linecap="round"/>
<path d="M708.1 319.0 L706.1 319.2" fill="none" stroke="#1f5fbf" stroke-width="2.6" stroke-linecap="round"/>
<path d="M582.0 104.0 L598.0 103.8" fill="none" stroke="#1f5fbf" stroke-width="2.6" stroke-linecap="round"/>
<path d="M664.8 273.3 L670.9 324.3" fill="none" stroke="#1f5fbf" stroke-width="2.6" stroke-linecap="round"/>
<path d="M619.6 960.0 L619.5 957.3 L619.5 955.0 L616.9 952.5 L610.6 946.5 L605.1 755.3 L599.0 745.0 L592.7 734.2 L594.3 695.1 L597.5 617.6 L598.5 594.8 L603.5 474.6 L607.5 378.4" fill="none" stroke="#1f5fbf" stroke-width="2.6" stroke-linecap="round"/>
<path d="M660.3 326.5 L644.0 330.1" fill="none" stroke="#1f5fbf" stroke-width="2.6" stroke-linecap="round"/>
<path d="M608.4 356.8 L609.6 328.1 L609.8 323.0" fill="none" stroke="#1f5fbf" stroke-width="2.6" stroke-linecap="round"/>
<path d="M665.2 24.7 L665.2 22.8" fill="none" stroke="#1f5fbf" stroke-width="2.6" stroke-linecap="round"/>
<path d="M660.3 326.5 L659.0 388.7 L657.1 474.4 L654.4 596.4 L653.8 622.0" fill="none" stroke="#1f5fbf" stroke-width="2.6" stroke-linecap="round"/>
<path d="M670.3 22.6 L669.0 107.5" fill="none" stroke="#1f5fbf" stroke-width="2.6" stroke-linecap="round"/>
<path d="M607.7 109.7 L606.6 109.7" fill="none" stroke="#1f5fbf" stroke-width="2.6" stroke-linecap="round"/>
<path d="M606.6 109.7 L604.4 109.6 L600.8 106.0 L598.7 103.8 L598.0 103.8" fill="none" stroke="#1f5fbf" stroke-width="2.6" stroke-linecap="round"/>
<path d="M644.7 57.8 L665.3 37.6 L665.2 26.2 L665.2 24.7" fill="none" stroke="#1f5fbf" stroke-width="2.6" stroke-linecap="round"/>
<path d="M632.3 332.7 L622.4 333.6 L609.6 328.1 L601.9 324.8 L598.3 324.6" fill="none" stroke="#1f5fbf" stroke-width="2.6" stroke-linecap="round"/>
<path d="M598.4 105.9 L600.8 106.0 L610.9 106.2 L646.5 107.2" fill="none" stroke="#1f5fbf" stroke-width="2.6" stroke-linecap="round"/>
<path d="M582.0 104.0 L582.4 77.0 L582.5 67.6 L583.0 32.0 L584.3 -71.3 L585.0 -107.7 L585.2 -119.7 L585.9 -166.7 L586.3 -185.7 L587.5 -262.5 L587.9 -286.7 L588.3 -308.4" fill="none" stroke="#1f5fbf" stroke-width="2.6" stroke-linecap="round"/>
<path d="M670.9 -19.6 L665.2 22.8" fill="none" stroke="#1f5fbf" stroke-width="2.6" stroke-linecap="round"/>
<path d="M611.7 280.8 L615.0 280.8 L617.2 279.7 L620.5 273.9 L654.2 268.7" fill="none" stroke="#1f5fbf" stroke-width="2.6" stroke-linecap="round"/>
<path d="M609.8 323.0 L611.7 280.8" fill="none" stroke="#1f5fbf" stroke-width="2.6" stroke-linecap="round"/>
<path d="M664.8 273.3 L669.5 273.1" fill="none" stroke="#1f5fbf" stroke-width="2.6" stroke-linecap="round"/>
<path d="M706.1 319.2 L670.9 324.3" fill="none" stroke="#1f5fbf" stroke-width="2.6" stroke-linecap="round"/>
<path d="M610.9 109.7 L607.7 109.7" fill="none" stroke="#1f5fbf" stroke-width="2.6" stroke-linecap="round"/>
<path d="M644.0 330.1 L632.3 332.7" fill="none" stroke="#1f5fbf" stroke-width="2.6" stroke-linecap="round"/>
<path d="M609.8 323.0 L606.3 322.6" fill="none" stroke="#1f5fbf" stroke-width="2.6" stroke-linecap="round"/>
<path d="M620.0 971.5 L623.5 999.0" fill="none" stroke="#1f5fbf" stroke-width="2.6" stroke-linecap="round"/>
<path d="M601.3 320.4 L460.5 343.1 L453.7 328.2 L446.6 322.2 L439.7 319.5 L434.1 318.3 L427.6 318.9 L427.0 319.1 L422.3 321.5 L417.1 325.3 L411.1 332.4 L407.1 348.8 L407.7 356.5 L325.8 375.7 L298.7 329.4 L291.1 330.7" fill="none" stroke="#1f5fbf" stroke-width="2.6" stroke-linecap="round"/>
<path d="M671.6 268.7 L686.6 269.4 L729.9 303.9 L748.9 299.4 L763.3 296.0" fill="none" stroke="#1f5fbf" stroke-width="2.6" stroke-linecap="round"/>
<path d="M654.2 268.7 L657.1 268.2 L665.2 268.8 L668.5 269.1 L671.6 268.7" fill="none" stroke="#1f5fbf" stroke-width="2.6" stroke-linecap="round"/>
<path d="M646.5 107.2 L669.0 107.5" fill="none" stroke="#1f5fbf" stroke-width="2.6" stroke-linecap="round"/>
<path d="M731.5 988.1 L709.7 998.8" fill="none" stroke="#1f5fbf" stroke-width="2.6" stroke-linecap="round"/>
<path d="M418.4 1076.5 L451.1 1065.3 L651.7 1007.5" fill="none" stroke="#d4a400" stroke-width="6" stroke-linecap="round"/>
<path d="M652.0 1007.4 L652.1 1007.3 M651.7 1007.5 L652.0 1007.4" fill="none" stroke="#d4a400" stroke-width="6" stroke-linecap="round"/>
<path d="M652.1 1007.3 L654.3 996.2 L680.4 991.4 L891.0 944.0 L1249.4 857.9 L1477.3 803.3 L1670.6 758.6 L1823.4 724.3 L1897.5 667.5 L1898.9 666.5 L1925.1 653.8" fill="none" stroke="#d4a400" stroke-width="6" stroke-linecap="round"/>
<path d="M-3245.7 1903.2 L-3184.1 1888.7 L-2995.4 1846.9 L-2803.7 1802.0 L-2617.7 1758.5 L-2517.4 1733.1 L-2495.1 1734.0 L-2390.2 1714.6 L-2384.1 1705.6 L-2278.1 1685.7 L-2081.7 1644.3 L-1951.9 1616.3 L-1762.4 1572.9 L-1541.5 1521.3 L-1359.7 1479.0 L-1164.3 1435.2 L-957.8 1394.1 L-934.1 1389.6 L-924.2 1385.6 L-911.8 1383.5 L-815.8 1361.1 L-739.5 1343.2 L-697.2 1332.9 L-657.4 1323.9 L-522.9 1292.6 L-401.7 1264.7 L-304.0 1241.1 L-250.1 1228.4 L-140.9 1203.8 L-70.7 1188.4 L84.8 1151.3 L174.3 1131.6 L297.3 1104.0 L315.6 1099.5 L415.0 1067.9 L417.9 1076.4" fill="none" stroke="#d4a400" stroke-width="6" stroke-linecap="round"/>
<path d="M417.9 1076.4 L418.0 1076.6 M418.0 1076.6 L418.4 1076.5" fill="none" stroke="#d4a400" stroke-width="6" stroke-linecap="round"/>
<path d="M652.0 1007.4 L645.6 1006.2" fill="none" stroke="#d4a400" stroke-width="6" stroke-linecap="round"/>
<path d="M645.6 1006.2 L645.2 1006.1" fill="none" stroke="#d4a400" stroke-width="6" stroke-linecap="round"/>
<path d="M418.0 1076.6 L411.9 1078.9" fill="none" stroke="#d4a400" stroke-width="6" stroke-linecap="round"/>
<path d="M411.9 1078.9 L411.5 1079.1" fill="none" stroke="#d4a400" stroke-width="6" stroke-linecap="round"/>
<path d="M418.0 1076.6 L418.0 1076.6" fill="none" stroke="#d4a400" stroke-width="6" stroke-linecap="round"/>
<path d="M418.0 1076.6 L418.0 1076.6" fill="none" stroke="#d4a400" stroke-width="6" stroke-linecap="round"/>
<path d="M374.1 413.8 L335.9 421.9 L339.9 616.6 L352.0 683.2 L357.9 733.0 L369.4 781.8 L376.9 830.2 L386.0 880.8 L386.6 950.3 L391.1 992.3 L332.8 1075.6" fill="none" stroke="#c0392b" stroke-width="1.3" stroke-dasharray="3 4"/>
<path d="M406.6 610.0 L406.4 687.0 L413.5 748.8 L420.8 820.2 L398.9 916.8 L420.3 957.3 L426.9 999.1" fill="none" stroke="#c0392b" stroke-width="1.3" stroke-dasharray="3 4"/>
<path d="M677.4 422.2 L678.5 505.2 L668.9 527.4 L659.0 637.1 L654.7 685.6 L648.2 746.4 L648.5 804.2 L651.9 947.0 L649.5 949.7 L699.6 1103.4 L644.5 1108.7" fill="none" stroke="#c0392b" stroke-width="1.3" stroke-dasharray="3 4"/>
<circle cx="519.0" cy="353.5" r="4.5" fill="#fff8e6" stroke="#c0392b" stroke-width="2"/>
<circle cx="547.0" cy="251.9" r="4.5" fill="#fff8e6" stroke="#c0392b" stroke-width="2"/>
<circle cx="746.3" cy="309.5" r="4.5" fill="#fff8e6" stroke="#c0392b" stroke-width="2"/>
<circle cx="335.9" cy="421.9" r="4.5" fill="#fff8e6" stroke="#c0392b" stroke-width="2"/>
<circle cx="352.0" cy="683.2" r="4.5" fill="#fff8e6" stroke="#c0392b" stroke-width="2"/>
<circle cx="339.9" cy="616.6" r="4.5" fill="#fff8e6" stroke="#c0392b" stroke-width="2"/>
<circle cx="426.9" cy="999.1" r="4.5" fill="#fff8e6" stroke="#c0392b" stroke-width="2"/>
<circle cx="391.1" cy="992.3" r="4.5" fill="#fff8e6" stroke="#c0392b" stroke-width="2"/>
<circle cx="420.3" cy="957.3" r="4.5" fill="#fff8e6" stroke="#c0392b" stroke-width="2"/>
<circle cx="386.6" cy="950.3" r="4.5" fill="#fff8e6" stroke="#c0392b" stroke-width="2"/>
<circle cx="398.9" cy="916.8" r="4.5" fill="#fff8e6" stroke="#c0392b" stroke-width="2"/>
<circle cx="386.0" cy="880.8" r="4.5" fill="#fff8e6" stroke="#c0392b" stroke-width="2"/>
<circle cx="376.9" cy="830.2" r="4.5" fill="#fff8e6" stroke="#c0392b" stroke-width="2"/>
<circle cx="420.8" cy="820.2" r="4.5" fill="#fff8e6" stroke="#c0392b" stroke-width="2"/>
<circle cx="369.4" cy="781.8" r="4.5" fill="#fff8e6" stroke="#c0392b" stroke-width="2"/>
<circle cx="413.5" cy="748.8" r="4.5" fill="#fff8e6" stroke="#c0392b" stroke-width="2"/>
<circle cx="357.9" cy="733.0" r="4.5" fill="#fff8e6" stroke="#c0392b" stroke-width="2"/>
<circle cx="406.4" cy="687.0" r="4.5" fill="#fff8e6" stroke="#c0392b" stroke-width="2"/>
<circle cx="406.6" cy="610.0" r="4.5" fill="#fff8e6" stroke="#c0392b" stroke-width="2"/>
<circle cx="374.1" cy="413.8" r="4.5" fill="#fff8e6" stroke="#c0392b" stroke-width="2"/>
<circle cx="298.0" cy="430.6" r="4.5" fill="#fff8e6" stroke="#c0392b" stroke-width="2"/>
<circle cx="292.0" cy="229.4" r="4.5" fill="#fff8e6" stroke="#c0392b" stroke-width="2"/>
<circle cx="551.4" cy="154.4" r="4.5" fill="#fff8e6" stroke="#c0392b" stroke-width="2"/>
<circle cx="484.5" cy="257.8" r="4.5" fill="#fff8e6" stroke="#c0392b" stroke-width="2"/>
<circle cx="747.7" cy="1403.1" r="4.5" fill="#fff8e6" stroke="#c0392b" stroke-width="2"/>
<circle cx="731.7" cy="1308.0" r="4.5" fill="#fff8e6" stroke="#c0392b" stroke-width="2"/>
<circle cx="713.6" cy="1208.0" r="4.5" fill="#fff8e6" stroke="#c0392b" stroke-width="2"/>
<circle cx="420.1" cy="1255.7" r="4.5" fill="#fff8e6" stroke="#c0392b" stroke-width="2"/>
<circle cx="699.6" cy="1103.4" r="4.5" fill="#fff8e6" stroke="#c0392b" stroke-width="2"/>
<circle cx="651.9" cy="947.0" r="4.5" fill="#fff8e6" stroke="#c0392b" stroke-width="2"/>
<circle cx="648.5" cy="804.2" r="4.5" fill="#fff8e6" stroke="#c0392b" stroke-width="2"/>
<circle cx="654.7" cy="685.6" r="4.5" fill="#fff8e6" stroke="#c0392b" stroke-width="2"/>
<circle cx="659.0" cy="637.1" r="4.5" fill="#fff8e6" stroke="#c0392b" stroke-width="2"/>
<circle cx="678.5" cy="505.2" r="4.5" fill="#fff8e6" stroke="#c0392b" stroke-width="2"/>
<circle cx="677.4" cy="422.2" r="4.5" fill="#fff8e6" stroke="#c0392b" stroke-width="2"/>
<circle cx="314.0" cy="307.7" r="4.5" fill="#fff8e6" stroke="#c0392b" stroke-width="2"/>
<circle cx="545.3" cy="349.3" r="4.5" fill="#fff8e6" stroke="#c0392b" stroke-width="2"/>
<circle cx="260.7" cy="153.5" r="4.5" fill="#fff8e6" stroke="#c0392b" stroke-width="2"/>
<circle cx="761.8" cy="191.7" r="4.5" fill="#fff8e6" stroke="#c0392b" stroke-width="2"/>
<circle cx="648.2" cy="746.4" r="4.5" fill="#fff8e6" stroke="#c0392b" stroke-width="2"/>
<circle cx="668.9" cy="527.4" r="4.5" fill="#fff8e6" stroke="#c0392b" stroke-width="2"/>
<circle cx="694.2" cy="208.4" r="4.5" fill="#fff8e6" stroke="#c0392b" stroke-width="2"/>
<circle cx="664.2" cy="367.0" r="4.5" fill="#fff8e6" stroke="#c0392b" stroke-width="2"/>
<circle cx="649.5" cy="949.7" r="4.5" fill="#fff8e6" stroke="#c0392b" stroke-width="2"/>
<circle cx="646.4" cy="1289.2" r="4.5" fill="#fff8e6" stroke="#c0392b" stroke-width="2"/>
<circle cx="654.6" cy="1287.7" r="4.5" fill="#fff8e6" stroke="#c0392b" stroke-width="2"/>
<circle cx="443.6" cy="231.7" r="4.5" fill="#fff8e6" stroke="#c0392b" stroke-width="2"/>
<circle cx="644.5" cy="1108.7" r="4.5" fill="#fff8e6" stroke="#c0392b" stroke-width="2"/>
<circle cx="480.3" cy="1179.3" r="4.5" fill="#fff8e6" stroke="#c0392b" stroke-width="2"/>
<circle cx="480.1" cy="1248.9" r="4.5" fill="#fff8e6" stroke="#c0392b" stroke-width="2"/>
<circle cx="487.7" cy="1248.1" r="4.5" fill="#fff8e6" stroke="#c0392b" stroke-width="2"/>
<circle cx="432.2" cy="1335.9" r="4.5" fill="#fff8e6" stroke="#c0392b" stroke-width="2"/>
<circle cx="172.5" cy="1215.0" r="4.5" fill="#fff8e6" stroke="#c0392b" stroke-width="2"/>
<circle cx="332.8" cy="1075.6" r="4.5" fill="#fff8e6" stroke="#c0392b" stroke-width="2"/>
<circle cx="196.2" cy="454.3" r="4.5" fill="#fff8e6" stroke="#c0392b" stroke-width="2"/>
<circle cx="263.7" cy="311.7" r="4.5" fill="#fff8e6" stroke="#c0392b" stroke-width="2"/>
<line x1="120.0" y1="769.2" x2="811.2" y2="769.2" stroke="#2b2620" stroke-width="1.6" stroke-dasharray="18 5 3 5"/>
</g>
<text x="108.0" y="775.2" font-size="20" font-weight="bold" text-anchor="end">A</text><text x="823.2" y="775.2" font-size="20" font-weight="bold">A</text>
<text x="465.6" y="400.8" font-size="16" text-anchor="middle" letter-spacing="2">CENTER ST</text>
<text x="465.6" y="1192.8" font-size="16" text-anchor="middle" letter-spacing="2">ALLSTON WAY</text>
<text x="724.8000000000001" y="1374.0" font-size="16" letter-spacing="2" transform="rotate(-90 724.8000000000001 1374.0)">SHATTUCK AVE</text>
<path d="M771.2 170.0 l10 26 l-10 -6 l-10 6 z" fill="#2b2620"/><text x="771.2" y="216.0" font-size="16" text-anchor="middle">N</text>
<line x1="120.0" y1="1486.0" x2="264.0" y2="1486.0" stroke="#2b2620" stroke-width="3"/><text x="274.0" y="1491.0" font-size="15">20 m (66 ft)</text>
<line x1="881.2" y1="160.0" x2="933.2" y2="160.0" stroke="#d4a400" stroke-width="6"/>
<text x="951.2" y="165.0" font-size="17" font-weight="bold">PG&amp;E gas main, 10–12 in.</text>
<text x="951.2" y="187.0" font-size="15" font-style="italic">198 psi; laid 1966 and 1983. Crosses Shattuck on a diagonal</text>
<text x="951.2" y="208.0" font-size="15" font-style="italic">about 12 m north of the Allston center line. PG&amp;E's public map is</text>
<text x="951.2" y="229.0" font-size="15" font-style="italic">approximate: true position needs a pothole.</text>
<line x1="881.2" y1="277.0" x2="933.2" y2="277.0" stroke="#1f5fbf" stroke-width="2.6"/>
<text x="951.2" y="282.0" font-size="17" font-weight="bold">EBMUD water mains</text>
<text x="951.2" y="304.0" font-size="15" font-style="italic">4 to 12 in.; 1925 to 2019; two pressure zones.</text>
<line x1="881.2" y1="352.0" x2="933.2" y2="352.0" stroke="#2e7d32" stroke-width="3.2"/>
<text x="951.2" y="357.0" font-size="17" font-weight="bold">Sanitary sewers (City)</text>
<text x="951.2" y="379.0" font-size="15" font-style="italic">8 in. plastic (2015) to a 36 in. concrete trunk (c. 1950):</text>
<text x="951.2" y="400.0" font-size="15" font-style="italic">one link in a 27–36 in. chain through downtown.</text>
<line x1="881.2" y1="448.0" x2="933.2" y2="448.0" stroke="#5b8c2a" stroke-width="3" stroke-dasharray="10 4 2 4"/>
<text x="951.2" y="453.0" font-size="17" font-weight="bold">Storm drains (City)</text>
<text x="951.2" y="475.0" font-size="15" font-style="italic">24 in. along the east side, 12 in. laterals; 2 of 7 segments on the</text>
<text x="951.2" y="496.0" font-size="15" font-style="italic">block have no size recorded. Feeds 54×36 and 63×42 in. arch</text>
<text x="951.2" y="517.0" font-size="15" font-style="italic">drains about 165 m north.</text>
<circle cx="907.2" cy="565.0" r="5" fill="#fff8e6" stroke="#c0392b" stroke-width="2"/><line x1="881.2" y1="565.0" x2="899.2" y2="565.0" stroke="#c0392b" stroke-width="1.3" stroke-dasharray="3 4"/>
<text x="951.2" y="570.0" font-size="17" font-weight="bold">Streetlights and their circuits</text>
<text x="951.2" y="592.0" font-size="15" font-style="italic">City-owned, metal poles, on PG&amp;E's LS-2 rate under one</text>
<text x="951.2" y="613.0" font-size="15" font-style="italic">service account. Lights are mapped; the conduit is not:</text>
<text x="951.2" y="634.0" font-size="15" font-style="italic">dashed red lines are inferred, not surveyed.</text>
<rect x="881.2" y="670.0" width="52" height="24" fill="url(#uud)" stroke="#8a7a5c"/>
<text x="951.2" y="687.0" font-size="17" font-weight="bold">Underground Utility District</text>
<text x="951.2" y="709.0" font-size="15" font-style="italic">Both sides of the block are in one. PG&amp;E electric,</text>
<text x="951.2" y="730.0" font-size="15" font-style="italic">phone and cable run underground here, but their</text>
<text x="951.2" y="751.0" font-size="15" font-style="italic">routes and vaults are not public. Not drawn.</text>
<line x1="881.2" y1="799.0" x2="933.2" y2="799.0" stroke="#555" stroke-width="2" stroke-dasharray="12 6"/>
<text x="951.2" y="804.0" font-size="17" font-weight="bold">BART station, Addison to Allston</text>
<text x="951.2" y="826.0" font-size="15" font-style="italic">Footprint schematic. BART's communications fiber runs</text>
<text x="951.2" y="847.0" font-size="15" font-style="italic">in the trainway; no public record shows it dropping</text>
<text x="951.2" y="868.0" font-size="15" font-style="italic">or terminating along Shattuck.</text>
<line x1="881.2" y1="916.0" x2="933.2" y2="916.0" stroke="#2b2620" stroke-width="1.6" stroke-dasharray="18 5 3 5"/>
<text x="951.2" y="921.0" font-size="17" font-weight="bold">A–A: the cross-section</text>
<text x="951.2" y="943.0" font-size="15" font-style="italic">Drawn separately at true scale.</text>
<text x="881.2" y="1011.0" font-size="15"><tspan font-weight="bold">Fiber.</tspan> No public layer shows commercial or City fiber</text><text x="881.2" y="1033.0" font-size="15">on this block. 811 locators mark it on request before digging.</text>
<text x="881.2" y="1081.0" font-size="15">Will the drains back up? City branch drains are sized for a 10-year</text>
<text x="881.2" y="1102.0" font-size="15">storm (2.03 in. in 6 hours); bigger storms are expected to pond [1].</text>
<text x="881.2" y="1123.0" font-size="15">No capacity model of downtown (Strawberry watershed) has been</text>
<text x="881.2" y="1144.0" font-size="15">published: the 2011 plan modeled 2 of 10 watersheds, and the</text>
<text x="881.2" y="1165.0" font-size="15">citywide model was being calibrated in Aug 2025 [1, 2]. On 22 Dec</text>
<text x="881.2" y="1186.0" font-size="15">2025, 5 of the City's 36 storm-drain requests came from this</text>
<text x="881.2" y="1207.0" font-size="15">block's corners [3]. The 36 in. sewer is sized for rain leaking into</text>
<text x="881.2" y="1228.0" font-size="15">old sewers, which a 2014 consent decree must cut by 2036 [4].</text>
<text x="60" y="1518" font-size="12.5" font-style="italic">Data: EBMUD water mains; City of Berkeley sewers, storm drains, streetlights and Underground Utility Districts; PG&amp;E gas pipeline map (60 psi and above only); all pulled 30 Aug 2026. Parcels: Alameda County assessor, Feb 2026.</text>
<text x="60" y="1538" font-size="12.5" font-style="italic">[1] City of Berkeley, Watershed Management Plan (Oct 2011), ch. 6. [2] Stormwater Master Plan community meeting, 28 Aug 2025. [3] Berkeley open data, 311 Cases (p88g-6gs2).</text>
<text x="60" y="1558" font-size="12.5" font-style="italic">[4] Berkeleyside, 'Winter storms test East Bay's progress in stopping sewage from entering the bay', 3 May 2023.</text>
</svg>